# xmcd CD database file generated by Grip 2.92
# 
# Track frame offsets:
#       182
#       19982
#       51432
#       73720
#       101185
#       127212
#       144947
#       166200
#       193095
# 
# Disc length: 2843 seconds
# 
# Revision: 3
# Processed by: cddbd v1.4b41PL1 Copyright (c) Steve Scherf et al.
# Submitted via: Grip 2.92
# 
DISCID=890b1909
DTITLE=Jimmy SMITH - The Big Brawl
DYEAR=1900
DGENRE=
TTITLE0=The big brawl - Theme of the film
TTITLE1=Down here on the ground
TTITLE2=Laying low
TTITLE3=Free ride
TTITLE4=Wersi time
TTITLE5=Where is Magdalena
TTITLE6=Lonely Shepherd
TTITLE7=In search of truth
TTITLE8=The cat strikes again
EXTD=
EXTT0=
EXTT1=
EXTT2=
EXTT3=
EXTT4=
EXTT5=
EXTT6=
EXTT7=
EXTT8=
PLAYORDER=
